<svg width="155" height="45" viewBox="0 0 155 45" fill="none" xmlns="http://www.w3.org/2000/svg">
<rect width="155" height="45" rx="22.5" fill="#171717"/>
<path d="M54.6921 10V33.5723H51.9297L39.0847 15.0644H38.8545V33.5723H36V10H38.7624L51.6535 28.554H51.8837V10H54.6921Z" fill="#CBFB45"/>
<path d="M67.2177 33.9406C65.6217 33.9406 64.2213 33.5608 63.0166 32.8011C61.8196 32.0415 60.8835 30.9787 60.2082 29.6129C59.5406 28.247 59.2069 26.651 59.2069 24.8248C59.2069 22.9832 59.5406 21.3756 60.2082 20.0021C60.8835 18.6286 61.8196 17.562 63.0166 16.8024C64.2213 16.0427 65.6217 15.6629 67.2177 15.6629C68.8138 15.6629 70.2103 16.0427 71.4074 16.8024C72.6121 17.562 73.5482 18.6286 74.2158 20.0021C74.891 21.3756 75.2286 22.9832 75.2286 24.8248C75.2286 26.651 74.891 28.247 74.2158 29.6129C73.5482 30.9787 72.6121 32.0415 71.4074 32.8011C70.2103 33.5608 68.8138 33.9406 67.2177 33.9406ZM67.2177 31.5005C68.4301 31.5005 69.4277 31.1897 70.2103 30.5682C70.993 29.9467 71.5723 29.1295 71.9483 28.1166C72.3243 27.1037 72.5123 26.0064 72.5123 24.8248C72.5123 23.6431 72.3243 22.542 71.9483 21.5214C71.5723 20.5009 70.993 19.676 70.2103 19.0468C69.4277 18.4176 68.4301 18.103 67.2177 18.103C66.0054 18.103 65.0078 18.4176 64.2252 19.0468C63.4425 19.676 62.8632 20.5009 62.4872 21.5214C62.1112 22.542 61.9232 23.6431 61.9232 24.8248C61.9232 26.0064 62.1112 27.1037 62.4872 28.1166C62.8632 29.1295 63.4425 29.9467 64.2252 30.5682C65.0078 31.1897 66.0054 31.5005 67.2177 31.5005Z" fill="#CBFB45"/>
<path d="M93.1985 15.8931L86.6609 33.5723H83.8985L77.3609 15.8931H80.3074L85.1876 29.9812H85.3718L90.252 15.8931H93.1985Z" fill="#CBFB45"/>
<path d="M101.448 33.9867C100.328 33.9867 99.3112 33.7756 98.3981 33.3536C97.485 32.9239 96.7598 32.3062 96.2227 31.5005C95.6856 30.6871 95.417 29.705 95.417 28.554C95.417 27.5411 95.6165 26.7201 96.0155 26.0909C96.4146 25.454 96.9478 24.9552 97.6154 24.5946C98.283 24.2339 99.0196 23.9654 99.8253 23.7889C100.639 23.6047 101.456 23.4589 102.277 23.3515C103.351 23.2134 104.222 23.1098 104.89 23.0407C105.565 22.964 106.056 22.8374 106.363 22.6609C106.678 22.4844 106.835 22.1775 106.835 21.7401V21.648C106.835 20.5124 106.524 19.63 105.903 19.0007C105.289 18.3715 104.356 18.0569 103.106 18.0569C101.809 18.0569 100.792 18.3408 100.056 18.9087C99.3189 19.4765 98.8009 20.0827 98.5017 20.7272L95.9235 19.8064C96.3839 18.7322 96.9977 17.8958 97.765 17.2973C98.54 16.6911 99.3841 16.2691 100.297 16.0312C101.218 15.7856 102.123 15.6629 103.014 15.6629C103.581 15.6629 104.234 15.7319 104.97 15.8701C105.715 16.0005 106.432 16.2729 107.123 16.6873C107.821 17.1016 108.4 17.727 108.861 18.5634C109.321 19.3998 109.551 20.5201 109.551 21.9243V33.5723H106.835V31.1782H106.697C106.513 31.5619 106.206 31.9724 105.776 32.4098C105.346 32.8472 104.775 33.2193 104.061 33.5263C103.347 33.8332 102.476 33.9867 101.448 33.9867ZM101.863 31.5466C102.937 31.5466 103.842 31.3355 104.579 30.9135C105.323 30.4915 105.883 29.9467 106.259 29.2791C106.643 28.6115 106.835 27.9094 106.835 27.1728V24.6866C106.72 24.8248 106.467 24.9514 106.075 25.0665C105.692 25.1739 105.246 25.2698 104.74 25.3542C104.241 25.431 103.754 25.5 103.278 25.5614C102.81 25.6151 102.43 25.6612 102.139 25.6995C101.433 25.7916 100.773 25.9412 100.159 26.1484C99.5529 26.3479 99.0618 26.651 98.6858 27.0577C98.3175 27.4567 98.1334 28.0015 98.1334 28.6921C98.1334 29.6359 98.4825 30.3495 99.1808 30.8329C99.8867 31.3087 100.781 31.5466 101.863 31.5466Z" fill="#CBFB45"/>
<path d="M116.489 33.7565C115.921 33.7565 115.434 33.5531 115.027 33.1464C114.62 32.7397 114.417 32.2525 114.417 31.6847C114.417 31.1168 114.62 30.6296 115.027 30.2229C115.434 29.8162 115.921 29.6129 116.489 29.6129C117.057 29.6129 117.544 29.8162 117.951 30.2229C118.357 30.6296 118.561 31.1168 118.561 31.6847C118.561 32.0607 118.465 32.406 118.273 32.7206C118.089 33.0352 117.839 33.2884 117.525 33.4802C117.218 33.6644 116.872 33.7565 116.489 33.7565Z" fill="#F2F2F2"/>
</svg>
